<?xml version="1.0" encoding="UTF-8" standalone="no"?>
<svg
   xmlns:svg="http://www.w3.org/2000/svg"
   xmlns="http://www.w3.org/2000/svg"
   version="1.1"
   width="533.75385"
   height="283.32306"
   id="svg3385">
  <defs
     id="defs3387" />
  <g
     transform="translate(-130.26593,-376.41494)"
     id="layer1">
    <path
       d="m 663.01922,404.05392 0,254.68407 -531.75329,0 0,-281.32305 503.99092,0 c 28.25664,0 27.76237,26.63898 27.76237,26.63898"
       id="path234"
       style="fill:#0e3463;fill-opacity:1;fill-rule:nonzero;stroke:none" />
    <path
       d="m 590.59808,634.64385 -3.21286,0 -37.84275,-94.27363 -38.17978,94.27363 -3.21286,0 -46.62755,-116.23186 16.55855,0 31.76156,79.40014 31.9338,-79.40014 15.70478,0 32.10606,79.40014 31.41706,-79.40014 16.39378,0 -46.79979,116.23186 z m -222.20358,-15.88161 26.35439,0 c 37.50573,0 46.12578,-28.5487 46.12578,-42.74067 0,-23.14902 -14.70124,-42.74816 -46.97207,-42.74816 l -25.5081,0 0,85.48883 z m -16.55855,-100.35482 44.77024,0 c 42.57591,0 61.32878,30.4135 61.32878,57.61415 0,29.55975 -23.14899,57.60666 -61.15653,57.60666 l -44.94249,0 0,-115.22081 z m -63.35758,116.23643 -3.37763,0 -49.84039,-116.23186 16.55856,0 34.62988,80.92044 34.46515,-80.92044 16.38629,0 -48.82186,116.23186 z m -114.8883,-15.88161 20.78242,0 c 19.4269,0 24.66181,-9.63107 24.66181,-18.24361 0,-10.47734 -8.10326,-17.91408 -25.50808,-17.91408 l -19.93615,0 0,36.15769 z m 0,-51.02367 10.97911,0 c 16.39377,0 24.3323,-6.08122 24.3323,-18.41588 0,-8.61254 -4.89793,-16.04928 -20.10841,-16.04928 l -15.203,0 0,34.46515 z m -16.55855,-49.33115 33.45408,0 c 24.83409,0 35.47619,14.866 35.47619,29.39497 0,11.99764 -5.57194,19.77141 -17.56959,24.66931 l 0,0.33703 c 17.23259,3.21284 27.70993,14.52897 27.70993,30.069 0,14.19945 -10.64211,30.7505 -39.53531,30.7505 l -39.5353,0 0,-115.22081 z"
       id="path250"
       style="fill:#ffffff;fill-opacity:1;fill-rule:nonzero;stroke:none" />
  </g>
</svg>
