<svg id="Capa_1" enable-background="new 0 0 512 512" height="512" viewBox="0 0 512 512" width="512" xmlns="http://www.w3.org/2000/svg"><g><path d="m512 317v-120c0-8.284-6.716-15-15-15h-26v-35c0-35.841-29.159-65-65-65s-65 29.159-65 65v35h-170v-35c0-35.841-29.159-65-65-65s-65 29.159-65 65v35h-26c-8.284 0-15 6.716-15 15v120c0 8.284 6.716 15 15 15h21.301l-35.943 161.746c-.987 4.441.095 9.091 2.942 12.64s7.15 5.614 11.7 5.614h60c7.03 0 13.118-4.883 14.643-11.746l6.278-28.254h320.158l6.279 28.254c1.524 6.863 7.612 11.746 14.642 11.746h60c4.55 0 8.854-2.065 11.7-5.614 2.848-3.549 3.93-8.198 2.942-12.64l-35.943-161.746h21.301c8.284 0 15-6.716 15-15zm-43.027-105-60 90h-44.346l60-90zm-72.894 170h-280.158l11.111-50h257.935zm-25.079-235c0-19.299 15.701-35 35-35s35 15.701 35 35v35h-20v-25c0-8.284-6.716-15-15-15s-15 6.716-15 15v25h-20zm-26.772 65h44.345l-60 90h-44.345zm-36.055 0-60 90h-44.346l60-90zm-124.745 0h44.345l-60 90h-44.345zm-96.055 90h-44.346l60-90h44.346zm-16.373-155c0-19.299 15.701-35 35-35s35 15.701 35 35v35h-20v-25c0-8.284-6.716-15-15-15s-15 6.716-15 15v25h-20zm-41 120.459v-55.459h36.973zm32.968 214.541h-29.269l33.333-150h29.269zm39.62-40 6.667-30h293.491l6.667 30zm375.713 40h-29.269l-33.333-150h29.269zm3.699-180h-36.973l36.973-55.459z"/><path d="m106 60c8.285 0 15-6.716 15-15v-30c0-8.284-6.716-15-15-15-8.284 0-15 6.716-15 15v30c0 8.284 6.716 15 15 15z"/><path d="m38.01 68.481c4.142 7.174 13.316 9.632 20.49 5.49 7.174-4.142 9.632-13.316 5.49-20.49l-15-25.981c-4.142-7.174-13.316-9.632-20.49-5.49-7.174 4.142-9.632 13.316-5.49 20.49z"/><path d="m153.5 73.971c7.174 4.142 16.348 1.684 20.49-5.49l15-25.981c4.142-7.174 1.684-16.348-5.49-20.49-7.174-4.142-16.348-1.684-20.49 5.49l-15 25.981c-4.142 7.174-1.684 16.348 5.49 20.49z"/><path d="m406 60c8.284 0 15-6.716 15-15v-30c0-8.284-6.716-15-15-15s-15 6.716-15 15v30c0 8.284 6.716 15 15 15z"/><path d="m453.5 73.971c7.174 4.142 16.348 1.684 20.49-5.49l15-25.981c4.142-7.174 1.684-16.348-5.49-20.49-7.174-4.142-16.348-1.684-20.49 5.49l-15 25.981c-4.142 7.174-1.684 16.348 5.49 20.49z"/><path d="m338.01 68.481c4.142 7.174 13.316 9.632 20.49 5.49 7.174-4.142 9.632-13.316 5.49-20.49l-15-25.981c-4.142-7.174-13.316-9.632-20.49-5.49-7.174 4.142-9.632 13.316-5.49 20.49z"/></g></svg>