<svg id="Ebene_1" xmlns="http://www.w3.org/2000/svg" xmlns:xlink="http://www.w3.org/1999/xlink"
     viewBox="0 0 1273.6 1613.04">
    <defs>
        <style>.cls-1{fill:none;}.cls-2{fill:white; clip-path:url(#clip-path);}</style>
        <clipPath id="clip-path" transform="translate(-463.2 -293.49)">
            <rect class="cls-1" x="463.2" y="293.48" width="1273.6" height="1613.04"/>
        </clipPath>
    </defs>
    <title>UBIRCH_Logo</title>
    <g class="cls-2">
        <path d="M570.6,1827c0,46.11,34.24,79.52,87.72,79.52,52.92,0,87.17-33.41,87.17-79.52v-109c0-12.19-6.24-18.4-18.41-18.4H704.45c-12.17,0-18.4,6.21-18.4,18.4v109.22c0,16.7-11,24.9-28,24.9-16.71,0-27.73-8.2-27.73-25.17v-109c0-12.19-6.51-18.4-18.4-18.4H589c-11.91,0-18.4,6.21-18.4,18.4Zm238,66.78q0,9.35,9.34,9.33h62c35.37,0,64.52-19.24,64.52-56.88,0-22.35-11.88-42.16-32.84-48.38v-.57c15.31-7.92,24.62-23.49,24.62-43,0-32.26-24-50.94-57.71-50.94H817.9q-9.35,0-9.34,9.35Zm27.75-106.41v-59.71h41.58c19,0,30,11.89,30,29.44s-11.32,30.27-29.42,30.27Zm0,91.4v-68.19h45c20.94,0,34.52,13.87,34.52,34.24s-13,34-34.52,34Zm153.92,15q0,9.35,9.35,9.33h9c6.24,0,9.33-3.1,9.33-9.33V1712.68c0-6.23-3.09-9.35-9.33-9.35h-9q-9.35,0-9.35,9.35Zm85.76,0q0,9.35,9.33,9.33h9q9.35,0,9.33-9.33v-70.18h42.74l39.07,73c2.26,4.53,5.66,6.5,11,6.5h11.31c7.09,0,9.93-4.51,6.23-11l-35.93-66.5a52.35,52.35,0,0,0-5.93-9.06V1816c22-7.37,35.63-29.42,35.63-54.91s-12.45-43.85-31.4-52.35c-8.2-3.67-17.83-5.38-37.34-5.38h-53.78q-9.32,0-9.33,9.35Zm27.71-94.52v-71.6h33.41c12.73,0,18.68,1.13,23.76,3.4,12.45,5.37,18.68,16.69,18.68,31.12,0,22.37-13.85,37.08-35.65,37.08Zm141.5,2.82c0,58.58,40.48,104.44,102.17,104.44a110.62,110.62,0,0,0,71-25.47c4.55-4,4.83-8.5,1.43-13l-4.25-5.66c-3.67-4.82-8.21-4.82-13-1.13-8.77,6.79-28,19.51-54.33,19.51-46.12,0-74.15-36.5-74.15-79,0-42.16,27.46-76.11,73.87-76.11,24.06,0,41.59,10.19,50.09,15.85,5.37,3.39,9.62,2.82,13-2.27l3.67-5.65c3.12-5.11,2.84-9.63-1.71-13-9.88-7.36-32-20.66-66.2-20.66-59.71,0-101.6,44.15-101.6,102.15m219.59,91.7q0,9.35,9.34,9.33h9.07q9.32,0,9.33-9.33v-78.4h103.86v78.4c0,6.23,3.39,9.33,9.35,9.33h9.33c5.93,0,9-3.1,9-9.33V1712.68c0-6.23-3.12-9.35-9-9.35h-9.33c-6,0-9.35,3.12-9.35,9.35v78.67H1492.53v-78.67q0-9.35-9.33-9.35h-9.07q-9.33,0-9.34,9.35Z"
              transform="translate(-463.2 -293.49)"/>
        <path d="M1463.56,961.58a363.56,363.56,0,1,1-727.12,0v-205a202,202,0,0,1,404,0v205a40.41,40.41,0,0,1-80.81,0v-205a121.18,121.18,0,0,0-242.35,0v205a282.77,282.77,0,0,0,565.53,0V692a40.41,40.41,0,1,0-80.81,0V961.58a202,202,0,1,1-403.94,0V759.05a40.4,40.4,0,1,1,80.79,0V961.58a121.19,121.19,0,1,0,242.37,0V692a121.19,121.19,0,1,1,242.37,0ZM1100,293.49c-351.68,0-636.8,285.11-636.8,636.8s285.12,636.8,636.8,636.8,636.8-285.1,636.8-636.8-285.11-636.8-636.8-636.8"
              transform="translate(-463.2 -293.49)"/>
    </g>
</svg>
