<svg id="Logo" xmlns="http://www.w3.org/2000/svg" viewBox="0 0 151.3 60"><path id="Pfad_1" data-name="Pfad 1" d="M105.29,30.88a10.28,10.28,0,1,1-20.55,0V25.09a5.71,5.71,0,1,1,11.42,0v5.79a1.15,1.15,0,1,1-2.29,0h0V25.09a3.43,3.43,0,0,0-6.85,0v5.79a8,8,0,1,0,16,0V23.26a1.15,1.15,0,0,0-2.29,0v7.62a5.71,5.71,0,1,1-11.42,0h0V25.16a1.15,1.15,0,0,1,2.29,0v5.72a3.43,3.43,0,1,0,6.85,0V23.26a3.43,3.43,0,0,1,6.85,0ZM95,12a18,18,0,1,0,18,18h0A18,18,0,0,0,95,12"/><path id="Pfad_2" data-name="Pfad 2" d="M0,31.62C0,34.74,2.32,37,5.94,37s5.9-2.26,5.9-5.38V24.24A1.1,1.1,0,0,0,10.89,23a1.4,1.4,0,0,0-.29,0H9.06a1.1,1.1,0,0,0-1.24.94.76.76,0,0,0,0,.3v7.4c0,1.13-.75,1.68-1.9,1.68S4,32.77,4,31.62V24.25a1.11,1.11,0,0,0-1-1.25,1.31,1.31,0,0,0-.28,0H1.25A1.13,1.13,0,0,0,0,24a1.31,1.31,0,0,0,0,.28Zm16.1,4.52a.57.57,0,0,0,.48.63h4.35c2.39,0,4.37-1.3,4.37-3.85a3.25,3.25,0,0,0-2.23-3.27v0a3.15,3.15,0,0,0,1.67-2.91c0-2.19-1.63-3.45-3.91-3.45h-4.1a.56.56,0,0,0-.63.47.43.43,0,0,0,0,.16ZM18,28.94v-4H20.8a1.86,1.86,0,0,1,2,1.7,2.71,2.71,0,0,1,0,.29,1.91,1.91,0,0,1-1.78,2H18Zm0,6.18V30.51h3a2.2,2.2,0,0,1,2.34,2.05,1.22,1.22,0,0,1,0,.27,2.16,2.16,0,0,1-2,2.3H18Zm10.42,1a.56.56,0,0,0,.48.63h.77a.56.56,0,0,0,.63-.47.43.43,0,0,0,0-.16V23.88a.55.55,0,0,0-.47-.63.43.43,0,0,0-.16,0H29a.57.57,0,0,0-.64.47V36.14Zm5.8,0a.56.56,0,0,0,.48.63h.77a.57.57,0,0,0,.63-.47.43.43,0,0,0,0-.16V31.39H39l2.64,4.94a.75.75,0,0,0,.75.44h.77c.48,0,.67-.31.42-.75l-2.43-4.5a4,4,0,0,0-.4-.61v0a3.75,3.75,0,0,0,2.41-3.71A3.68,3.68,0,0,0,41,23.61a6,6,0,0,0-2.52-.36H34.84a.56.56,0,0,0-.63.48.38.38,0,0,0,0,.15Zm1.88-6.4V24.89h2.26a3.82,3.82,0,0,1,1.61.23,2.14,2.14,0,0,1,1.26,2.11,2.29,2.29,0,0,1-2.09,2.5,1.71,1.71,0,0,1-.32,0Zm9.57.19A6.74,6.74,0,0,0,52.06,37h.51a7.55,7.55,0,0,0,4.81-1.73.59.59,0,0,0,.15-.81l-.05-.07L57.19,34a.56.56,0,0,0-.77-.17l-.11.09a6.09,6.09,0,0,1-3.68,1.33c-3.12,0-5-2.47-5-5.35a4.84,4.84,0,0,1,4.53-5.14h.47A6.13,6.13,0,0,1,56,25.83a.57.57,0,0,0,.8,0l.08-.12.25-.38a.6.6,0,0,0-.07-.85l0,0A7.38,7.38,0,0,0,52.54,23a6.68,6.68,0,0,0-6.88,6.48,3.09,3.09,0,0,0,0,.43m14.86,6.2a.56.56,0,0,0,.47.63.43.43,0,0,0,.16,0h.62a.55.55,0,0,0,.63-.47V30.83h7v5.3a.57.57,0,0,0,.49.64h.77a.55.55,0,0,0,.62-.48.76.76,0,0,0,0-.15V23.88a.55.55,0,0,0-.46-.63h-.78a.57.57,0,0,0-.63.5.33.33,0,0,0,0,.14V29.2h-7V23.88a.55.55,0,0,0-.47-.63h-.77a.56.56,0,0,0-.63.48.43.43,0,0,0,0,.16Z"/></svg>