<svg id="Logo" xmlns="http://www.w3.org/2000/svg" width="151.299" height="60" viewBox="0 0 151.299 60">
  <defs>
    <style>
      .cls-1 {
        fill: #fff;
      }
    </style>
  </defs>
  <path id="Pfad_1" data-name="Pfad 1" class="cls-1" d="M510.328,494.675a17.127,17.127,0,1,1-34.255,0V485.02a9.515,9.515,0,0,1,19.031,0v9.656a1.9,1.9,0,0,1-3.807,0V485.02a5.709,5.709,0,0,0-11.417,0v9.656a13.321,13.321,0,0,0,26.643,0v-12.7a1.9,1.9,0,0,0-3.807,0v12.7a9.515,9.515,0,1,1-19.03,0v-9.541a1.9,1.9,0,1,1,3.806,0v9.541a5.709,5.709,0,0,0,11.418,0v-12.7a5.709,5.709,0,0,1,11.418,0ZM493.2,463.2a30,30,0,1,0,30,30,30,30,0,0,0-30-30" transform="translate(-463.201 -463.201)"/>
  <path id="Pfad_2" data-name="Pfad 2" class="cls-1" d="M570.6,1708.279c0,3.121,2.317,5.382,5.937,5.382,3.582,0,5.9-2.261,5.9-5.382v-7.373a1.106,1.106,0,0,0-1.245-1.245h-1.532a1.105,1.105,0,0,0-1.245,1.245v7.392c0,1.13-.747,1.684-1.9,1.684-1.131,0-1.877-.555-1.877-1.7v-7.373a1.113,1.113,0,0,0-1.245-1.245h-1.55a1.113,1.113,0,0,0-1.245,1.245Zm16.1,4.519a.558.558,0,0,0,.633.631h4.194c2.394,0,4.366-1.3,4.366-3.849a3.254,3.254,0,0,0-2.222-3.274v-.039a3.147,3.147,0,0,0,1.666-2.911c0-2.183-1.627-3.447-3.906-3.447h-4.1a.559.559,0,0,0-.633.633Zm1.878-7.2v-4.041h2.815a1.871,1.871,0,0,1,2.03,1.992,1.915,1.915,0,0,1-1.991,2.049Zm0,6.185v-4.615h3.044a2.2,2.2,0,0,1,2.336,2.318,2.161,2.161,0,0,1-2.336,2.3ZM599,1712.8a.558.558,0,0,0,.633.631h.613a.558.558,0,0,0,.632-.631v-12.256a.558.558,0,0,0-.632-.633h-.613a.559.559,0,0,0-.633.633Zm5.8,0a.558.558,0,0,0,.631.631h.613a.558.558,0,0,0,.632-.631v-4.749h2.892l2.644,4.941a.743.743,0,0,0,.746.439h.766c.48,0,.672-.305.422-.747l-2.432-4.5a3.554,3.554,0,0,0-.4-.613v-.037a3.764,3.764,0,0,0,2.412-3.716,3.672,3.672,0,0,0-2.125-3.543,5.917,5.917,0,0,0-2.527-.364h-3.639a.559.559,0,0,0-.631.633Zm1.876-6.4v-4.846h2.261a3.76,3.76,0,0,1,1.608.23,2.132,2.132,0,0,1,1.264,2.107,2.308,2.308,0,0,1-2.413,2.51Zm9.576.191a6.74,6.74,0,0,0,6.915,7.068,7.488,7.488,0,0,0,4.806-1.724.588.588,0,0,0,.1-.881l-.288-.383a.558.558,0,0,0-.881-.076,6.061,6.061,0,0,1-3.677,1.321c-3.121,0-5.018-2.47-5.018-5.343a4.844,4.844,0,0,1,5-5.151,6.093,6.093,0,0,1,3.39,1.072.563.563,0,0,0,.881-.153l.249-.383a.6.6,0,0,0-.116-.881,7.4,7.4,0,0,0-4.48-1.4,6.682,6.682,0,0,0-6.876,6.913m14.861,6.205a.558.558,0,0,0,.631.631h.614a.558.558,0,0,0,.631-.631v-5.305h7.029v5.305a.566.566,0,0,0,.633.631h.632a.552.552,0,0,0,.613-.631v-12.256a.553.553,0,0,0-.613-.633h-.632a.567.567,0,0,0-.633.633v5.324H632.99v-5.324a.559.559,0,0,0-.631-.633h-.614a.559.559,0,0,0-.631.633Z" transform="translate(-490.597 -1676.661)"/>
</svg>
